# xmcd CD database file
# Copyright (C) 1993-1998 Ti Kan
#
# Track frame offsets:
#  150
#  12760
#  29032
#  45547
#  58580
#  70732
#  83407
#  98692
#  114295
#  128920
#  142657
#  158295
#  172282
#  184437
#  197907
#  209670
#  230890
#  247942
#
# Disc length: 3545 seconds
#
# Revision: 1
# Processed by: cddbd v1.4b41PL1 Copyright (c) Steve Scherf et al.
# Submitted via: CDWizzard Release:4.32
#
DISCID=f30dd712
DTITLE=Various Artist - Kickin' Country
DYEAR=1900
DGENRE=
TTITLE0=Third Rock From The Sun-Joe Diffie
TTITLE1=Old Enough To Know Better-Wade Hayes
TTITLE2=Shut Up And Kiss Me-Mary Chapin Carpenter
TTITLE3=My Kind Of Girl-Collin Raye
TTITLE4=Juckbox Junkie-Ken Mellons
TTITLE5=I Try To Think About Elvis-Patty Loveless
TTITLE6=A Real Good Way To End Up Lonesome-James House
TTITLE7=Walking Away A Winner-Kathy Mattea
TTITLE8=There Goes My Heart-The Mavericks
TTITLE9=Addicted To The Dollar-Doug Stone
TTITLE10=Take That-Lisa Brokop
TTITLE11=Doctor Time-Rick Trevino
TTITLE12=There Ain't Much You Can Do About Love-Prescott/Brown
TTITLE13=Money In The Bank-John Anderson
TTITLE14=It's A Little Too Late-Tanya Tucker
TTITLE15=Deliver Me-The Blue Shadows
TTITLE16=Love And Luck-Marty Stuart
TTITLE17=Cool New Country-Rhodes&Marshall
EXTD=
EXTT0=
EXTT1=
EXTT2=
EXTT3=
EXTT4=
EXTT5=
EXTT6=
EXTT7=
EXTT8=
EXTT9=
EXTT10=
EXTT11=
EXTT12=
EXTT13=
EXTT14=
EXTT15=
EXTT16=
EXTT17=
PLAYORDER=
